<svg aria-hidden="true" style="position: absolute; width: 0; height: 0; overflow: hidden;" version="1.1" xmlns="http://www.w3.org/2000/svg" xmlns:xlink="http://www.w3.org/1999/xlink">
<defs>
<symbol id="icon-second__img6" viewBox="0 0 32 32">
<path fill="#ff00d4" style="fill: var(--color1, #ff00d4)" d="M16 13.696c-1.416 0-2.568-1.152-2.568-2.568s1.152-2.568 2.568-2.568c1.416 0 2.568 1.152 2.568 2.568 0 1.417-1.152 2.568-2.568 2.568z"></path>
<path fill="#fff" style="fill: var(--color2, #fff)" d="M31.34 22.428h-2.568l-0.513-3.596h-2.569l-0.512-3.596h-18.355l-0.513 3.596h-2.566l-0.515 3.596h-2.568l-0.66 4.622h32l-0.66-4.622zM27.368 19.86l0.366 2.568h-12.829l-0.366-2.568h12.828zM12.987 22.428h-2.557l0.366-2.568h2.705l0.367 2.568h-0.881zM9.391 22.428h-0.649l-0.367-2.568h1.384l-0.367 2.568zM24.285 16.265l0.367 2.568h-12.829l-0.367-2.568h12.829zM7.715 16.265h2.705l0.366 2.568h-3.438l0.367-2.568zM4.632 19.86h2.705l0.366 2.568h-3.437l0.366-2.568zM1.184 26.022l0.367-2.569h2.703l0.367 2.568h-3.438zM5.66 26.022l-0.367-2.569h1.384l-0.366 2.569h-0.65zM7.347 26.022l0.367-2.569h2.703l0.367 2.568h-3.438zM11.823 26.022l-0.367-2.569h1.384l-0.366 2.568h-0.65zM13.51 26.022l0.367-2.569h2.705l0.366 2.568h-3.438zM17.987 26.022l-0.367-2.569h12.829l0.366 2.568h-12.828zM15.487-0.17h1.027v5.137h-1.025v-5.137zM13.363 5.533l-0.89 0.513-2.568-4.447 0.89-0.515 2.568 4.448zM10.918 7.603l-0.512 0.89-4.448-2.569 0.512-0.89 4.451 2.569zM4.701 10.615h5.135v1.028h-5.135v-1.028zM22.163 10.615h5.135v1.028h-5.135v-1.028zM26.042 5.924l-4.447 2.568-0.513-0.89 4.447-2.568 0.513 0.89zM22.093 1.6l-2.566 4.448-0.89-0.515 2.566-4.448 0.89 0.513z"></path>
</symbol>
<symbol id="icon-second__img5" viewBox="0 0 32 32">
<path fill="#ff00d4" style="fill: var(--color1, #ff00d4)" d="M32 18.58v-5.16h-2.438c-0.213-0.726-0.481-1.356-0.812-1.946l0.024 0.046 1.726-1.724-3.65-3.65-1.723 1.727c-0.543-0.307-1.173-0.575-1.834-0.77l-0.065-0.017v-2.44h-5.161v2.445l-0.965 0.281 0.763 0.621c2.334 1.901 3.813 4.775 3.813 7.994 0 0.005 0 0.010 0 0.015v-0.001c0 0.004 0 0.008 0 0.013 0 3.22-1.479 6.094-3.795 7.98l-0.019 0.015-0.763 0.621 0.945 0.275 0.020 2.451h5.161v-2.439c0.726-0.213 1.356-0.48 1.945-0.811l-0.047 0.024 1.724 1.724 3.65-3.649-1.726-1.724c0.307-0.544 0.576-1.174 0.772-1.835l0.017-0.065h2.438zM21.151 20.616c0.657-1.351 1.041-2.939 1.043-4.616v-0.001c-0.001-1.678-0.386-3.265-1.071-4.681l0.028 0.064c2.331 0.272 4.122 2.235 4.122 4.616s-1.792 4.344-4.1 4.614l-0.022 0.002z"></path>
<path fill="#fff" style="fill: var(--color2, #fff)" d="M11.354 6.709c-5.122 0-9.289 4.168-9.289 9.291s4.167 9.291 9.291 9.291c5.122 0 9.289-4.168 9.289-9.291s-4.167-9.291-9.289-9.291zM11.354 24.258c-4.558-0.007-8.251-3.7-8.256-8.258v-0c0.005-4.558 3.698-8.252 8.255-8.258h0.001c4.558 0.006 8.252 3.7 8.257 8.258v0c-0.005 4.558-3.699 8.252-8.257 8.258h-0.001z"></path>
<path fill="#fff" style="fill: var(--color2, #fff)" d="M12.388 10.323h-0.517v-1.549h-1.031v1.549h-0.517c-1.71 0.002-3.095 1.387-3.097 3.097v0c0.002 1.71 1.387 3.095 3.097 3.097h2.065c1.138 0 2.065 0.924 2.065 2.065 0 1.138-0.927 2.063-2.065 2.063h-2.065c-1.139 0-2.065-0.924-2.065-2.065v-1.031h-1.032v1.031c0.002 1.71 1.387 3.095 3.097 3.097h0.516v1.549h1.032v-1.549h0.517c1.709-0.001 3.095-1.386 3.097-3.096v-0c-0.001-1.71-1.387-3.096-3.097-3.097h-2.065c-1.139 0-2.065-0.927-2.065-2.065 0-1.139 0.926-2.065 2.065-2.065h2.065c1.138 0 2.065 0.926 2.065 2.065v1.031h1.031v-1.031c-0.001-1.709-1.386-3.095-3.095-3.097h-0z"></path>
<path fill="#fff" style="fill: var(--color2, #fff)" d="M25.806 16c0-0.003 0-0.006 0-0.009 0-2.544-1.846-4.656-4.272-5.071l-0.030-0.004c-1.868-3.714-5.715-6.27-10.149-6.27-6.261 0-11.355 5.092-11.355 11.354s5.094 11.354 11.354 11.354c4.435 0 8.281-2.555 10.15-6.27 2.456-0.419 4.302-2.532 4.302-5.075 0-0.003 0-0.006 0-0.010v0.001zM11.355 26.323c-5.692 0-10.323-4.631-10.323-10.323s4.631-10.323 10.323-10.323c5.691 0 10.323 4.631 10.323 10.323s-4.632 10.323-10.323 10.323zM22.023 19.889c0.444-1.214 0.687-2.523 0.687-3.889 0-0.002 0-0.005 0-0.008 0-1.393-0.252-2.727-0.713-3.959l0.026 0.078c1.616 0.58 2.751 2.099 2.751 3.883 0 0.002 0 0.004 0 0.006v-0c0 0.002 0 0.003 0 0.005 0 1.784-1.134 3.303-2.721 3.875l-0.029 0.009z"></path>
</symbol>
<symbol id="icon-second__img4" viewBox="0 0 32 32">
<path fill="#fff" style="fill: var(--color2, #fff)" d="M31.484 11.354c-2.469 0.003-4.486 1.932-4.632 4.365l-0.001 0.013-1.046 0.785v-7.741h-1.032v5.229l-2.080-1.385c-0.156-2.437-2.168-4.355-4.629-4.36h-0.516v0.516c0.004 2.503 1.986 4.541 4.466 4.636l0.009 0 2.751 1.833v3.337h-4.129v13.42h9.29v-13.42h-4.129v-0.774l1.733-1.299c2.483-0.102 4.457-2.138 4.461-4.636v-0.516h-0.516zM18.624 9.335c1.55 0.252 2.758 1.459 3.008 2.988l0.003 0.021c-1.55-0.252-2.758-1.459-3.008-2.988l-0.003-0.021zM24.774 21.678v1.033h-1.033v-1.033h1.033zM24.774 23.743v1.033h-1.033v-1.033h1.033zM24.774 25.807v1.032h-1.033v-1.032h1.033zM24.774 27.872v1.032h-1.033v-1.032h1.033zM24.774 29.937v1.032h-1.033v-1.032h1.033zM25.806 29.937h1.033v1.032h-1.033v-1.032zM25.806 28.904v-1.032h1.033v1.032h-1.033zM25.806 26.84v-1.033h1.033v1.032h-1.033zM25.806 24.776v-1.033h1.033v1.033h-1.033zM25.806 22.711v-1.033h1.033v1.033h-1.033zM25.806 20.646v-1.033h1.033v1.033h-1.033zM24.774 20.646h-1.033v-1.033h1.033v1.033zM21.677 19.613h1.033v1.033h-1.032v-1.033zM21.677 21.678h1.033v1.033h-1.032v-1.033zM21.677 23.743h1.033v1.033h-1.032v-1.033zM21.677 25.807h1.033v1.032h-1.032v-1.032zM21.677 27.872h1.033v1.032h-1.032v-1.032zM21.677 29.937h1.033v1.032h-1.032v-1.032zM28.904 30.968h-1.033v-1.032h1.033v1.032zM28.904 28.904h-1.033v-1.032h1.033v1.032zM28.904 26.84h-1.033v-1.033h1.033v1.032zM28.904 24.776h-1.033v-1.033h1.033v1.033zM28.904 22.711h-1.033v-1.033h1.033v1.033zM28.904 20.646h-1.033v-1.033h1.033v1.033zM27.914 15.442c0.251-1.552 1.459-2.761 2.99-3.010l0.021-0.003c-0.252 1.551-1.46 2.759-2.99 3.008l-0.021 0.003z"></path>
<path fill="#ff00d4" style="fill: var(--color1, #ff00d4)" d="M25.29 9.29c-2.565-0.003-4.643-2.082-4.645-4.646v-0c0.004-2.564 2.081-4.641 4.645-4.644h0c2.564 0.003 4.642 2.081 4.645 4.645v0c-0.003 2.564-2.081 4.642-4.645 4.645h-0z"></path>
<path fill="#fff" style="fill: var(--color2, #fff)" d="M25.806 6.194h-1.032c-0.286 0-0.517-0.232-0.517-0.517v0h-1.032c0 0.854 0.695 1.549 1.549 1.549v0.516h1.032v-0.516c0.854 0 1.549-0.695 1.549-1.549s-0.695-1.549-1.549-1.549h-1.032c-0.27-0.020-0.481-0.243-0.481-0.516s0.211-0.496 0.479-0.516l0.002-0h1.032c0.284 0 0.516 0.232 0.516 0.517h1.033c0-0.854-0.695-1.549-1.549-1.549v-0.516h-1.032v0.516c-0.829 0.035-1.487 0.715-1.487 1.549s0.659 1.514 1.484 1.549l0.003 0h1.032c0.27 0.020 0.481 0.243 0.481 0.516s-0.211 0.496-0.479 0.516l-0.002 0zM10.323 24.774v7.226h9.29v-9.29h-9.29v2.065zM11.355 25.806h1.032v1.032h-1.032v-1.032zM13.42 26.838v-1.032h1.032v1.032h-1.032zM14.451 27.871v1.032h-1.032v-1.032h1.032zM14.451 29.935v1.032h-1.032v-1.032h1.032zM15.484 29.935h1.032v1.032h-1.032v-1.032zM15.484 28.902v-1.032h1.032v1.032h-1.032zM15.484 26.839v-1.033h1.032v1.032h-1.032zM15.484 24.774v-1.033h1.032v1.033h-1.032zM14.451 24.774h-1.032v-1.033h1.032v1.033zM11.355 27.871h1.032v1.032h-1.032v-1.032zM11.355 29.935h1.032v1.032h-1.032v-1.032zM18.58 30.967h-1.032v-1.032h1.032v1.032zM18.58 28.902h-1.032v-1.032h1.032v1.032zM18.58 26.839h-1.032v-1.033h1.032v1.032zM18.58 24.774h-1.032v-1.033h1.032v1.033zM11.355 23.741h1.032v1.033h-1.032v-1.033zM0 28.902v3.098h9.29v-5.161h-9.29v2.063zM1.033 29.935h1.032v1.032h-1.032v-1.032zM5.161 29.935h1.033v1.032h-1.033v-1.032zM4.129 30.967h-1.033v-1.032h1.033v1.032zM5.161 28.902v-1.032h1.033v1.032h-1.033zM4.129 28.902h-1.033v-1.032h1.033v1.032zM8.259 30.967h-1.033v-1.032h1.033v1.032zM8.259 28.902h-1.033v-1.032h1.033v1.032zM1.033 27.871h1.032v1.032h-1.032v-1.032zM7.894 14.638l4.282 2.676 3.436-11.777 0.96 1.92 0.923-0.462-1.779-3.558-3.558 1.779 0.461 0.923 2.042-1.019-3.091 10.597-3.976-2.484-7.505 11.254 0.858 0.572 6.949-10.422z"></path>
</symbol>
<symbol id="icon-second__img3" viewBox="0 0 32 32">
<path fill="#fff" style="fill: var(--color2, #fff)" d="M24.633 17.393l-0.731-0.731c0.17-0.171 0.276-0.407 0.276-0.667s-0.105-0.496-0.276-0.667l0 0c-0.173-0.165-0.408-0.267-0.667-0.267s-0.494 0.102-0.667 0.267l0-0-0.732-0.731 0.517-0.516c0.17-0.171 0.276-0.407 0.276-0.667s-0.105-0.496-0.276-0.667l0 0c-0.173-0.166-0.409-0.268-0.668-0.268s-0.495 0.102-0.668 0.268l-0.516 0.516-0.729-0.729 1.032-1.033c0.149-0.166 0.239-0.387 0.239-0.629 0-0.522-0.423-0.945-0.945-0.945-0.242 0-0.462 0.091-0.63 0.24l0.001-0.001-1.033 1.032-0.729-0.729 0.516-0.517c0.171-0.17 0.276-0.405 0.276-0.664 0-0.001 0-0.002 0-0.003v0c-0.003-0.52-0.425-0.94-0.945-0.94-0.259 0-0.495 0.105-0.665 0.274l0-0-0.517 0.515-0.729-0.729 0.516-0.516c0.358-0.356 0.851-0.576 1.396-0.576 0.976 0 1.788 0.707 1.949 1.638l0.002 0.012c0.188-0.065 0.404-0.103 0.629-0.103 1.093 0 1.979 0.886 1.979 1.979 0 0.225-0.038 0.442-0.107 0.643l0.004-0.014c0.943 0.162 1.652 0.974 1.652 1.952 0 0.225-0.038 0.442-0.107 0.644l0.004-0.014c0.943 0.163 1.651 0.974 1.651 1.951 0 0.545-0.22 1.038-0.576 1.395l0-0zM16.676 23.373l-1.48 1.48-3.6 1.543-5.227 4.704 0.691 0.767 1.756-1.58c0.209 0.107 0.417 0.215 0.629 0.309l0.423-0.941c-0.076-0.035-0.151-0.076-0.227-0.111l2.517-2.267 3.627-1.553 1.62-1.62-0.729-0.729z"></path>
<path fill="#ff00d4" style="fill: var(--color1, #ff00d4)" d="M13.295 5.456l-7.827 7.827 1.8 1.8 1.775-1.717c0.197-0.195 0.467-0.315 0.766-0.315 0.602 0 1.089 0.488 1.089 1.089 0 0.223-0.067 0.43-0.182 0.603l0.002-0.004-1.517 2.275 9.52 9.52 7.827-7.827-13.253-13.252zM17.887 17.875c-0.482 0.486-1.149 0.786-1.887 0.786-1.468 0-2.657-1.19-2.657-2.657 0-0.738 0.301-1.406 0.787-1.887l0-0c0.48-0.476 1.141-0.77 1.87-0.77 1.468 0 2.657 1.19 2.657 2.657 0 0.73-0.294 1.391-0.771 1.871l0-0z"></path>
<path fill="#fff" style="fill: var(--color2, #fff)" d="M16.008 19.168c-0.002 0-0.005 0-0.008 0-0.873 0-1.664-0.355-2.234-0.929l-0-0c-0.575-0.571-0.931-1.362-0.931-2.236 0-0.002 0-0.005 0-0.007v0c0-0.848 0.331-1.645 0.931-2.244 0.571-0.574 1.361-0.929 2.234-0.929 0.003 0 0.006 0 0.009 0h-0c0.848 0 1.645 0.329 2.244 0.929 0.6 0.6 0.929 1.396 0.929 2.244s-0.331 1.644-0.929 2.243c-0.6 0.6-1.396 0.929-2.244 0.929zM16.008 13.855c-0.571 0-1.108 0.224-1.513 0.627-0.404 0.405-0.627 0.943-0.627 1.515 0 0.571 0.223 1.108 0.627 1.513 0.404 0.404 0.941 0.627 1.513 0.627s1.109-0.223 1.513-0.627c0.405-0.404 0.627-0.941 0.627-1.513 0-0.571-0.223-1.109-0.627-1.513-0.385-0.387-0.918-0.627-1.507-0.627-0.002 0-0.004 0-0.007 0h0zM8.351 18.291l0.859 0.573 2.368-3.553c0.222-0.331 0.354-0.738 0.354-1.175 0-0.586-0.237-1.116-0.62-1.501l0 0c-0.827-0.827-2.173-0.827-3 0l-3.105 3.107-1.032 5.161-1.631 1.632c-0.044-0.091-0.093-0.179-0.136-0.269l-0.937 0.433c0.095 0.204 0.2 0.403 0.305 0.604l-1.621 1.621 0.731 0.729 4.24-4.24 1.033-5.163 2.884-2.885c0.197-0.195 0.467-0.315 0.766-0.315 0.602 0 1.089 0.488 1.089 1.089 0 0.223-0.067 0.43-0.182 0.603l0.002-0.004-2.368 3.552zM2.112 10.411l-0.957-0.385c-0.234 0.559-0.464 1.248-0.646 1.956l-0.024 0.111 1 0.249c0.165-0.653 0.376-1.304 0.628-1.931zM4.121 6.891l-0.819-0.629c-0.44 0.573-0.844 1.181-1.201 1.809l0.896 0.511c0.335-0.587 0.713-1.155 1.124-1.691zM0.208 18.555c0.113 0.712 0.279 1.424 0.489 2.116l0.987-0.301c-0.174-0.542-0.333-1.209-0.446-1.891l-0.012-0.087-1.019 0.163zM1.036 15.996c0-0.553 0.031-1.111 0.091-1.656l-1.027-0.113c-0.061 0.527-0.096 1.139-0.096 1.758 0 0.144 0.002 0.288 0.006 0.431l-0-0.021 1.032-0.025c-0.003-0.107-0.005-0.238-0.005-0.369v-0.004zM29.32 7.111c-0.4-0.6-0.847-1.177-1.323-1.717l-0.773 0.684c0.447 0.505 0.864 1.047 1.24 1.608l0.857-0.573zM6.999 4.037l-0.623-0.824c-0.575 0.433-1.127 0.912-1.64 1.42l0.727 0.733c0.48-0.476 0.997-0.923 1.536-1.329zM30.965 15.309l1.031-0.047c-0.037-0.791-0.124-1.532-0.26-2.256l0.016 0.1-1.016 0.185c0.121 0.663 0.197 1.341 0.229 2.017zM31.217 11.003c-0.264-0.799-0.539-1.465-0.857-2.106l0.042 0.094-0.929 0.453c0.296 0.607 0.552 1.24 0.763 1.88l0.981-0.321zM10.529 2.057l-0.377-0.96c-0.671 0.264-1.329 0.576-1.96 0.929l0.507 0.9c0.587-0.329 1.204-0.623 1.831-0.869zM16.493 1.032c0.677 0.021 1.356 0.089 2.020 0.201l0.172-1.019c-0.631-0.112-1.375-0.189-2.133-0.214l-0.026-0.001-0.033 1.032zM23.591 28.909l0.524 0.889c0.621-0.365 1.224-0.777 1.791-1.225l-0.64-0.809c-0.488 0.387-1.034 0.765-1.605 1.107l-0.069 0.038zM24.153 3.432c0.567 0.367 1.113 0.777 1.624 1.219l0.676-0.783c-0.548-0.471-1.132-0.909-1.737-1.303l-0.563 0.867zM20.488 1.705c0.645 0.201 1.28 0.451 1.893 0.737l0.44-0.933c-0.655-0.309-1.337-0.573-2.025-0.789l-0.309 0.985zM29.171 23.133l0.908 0.493c0.345-0.633 0.649-1.299 0.905-1.973l-0.967-0.364c-0.239 0.631-0.523 1.252-0.847 1.845zM30.604 19.344l1.005 0.231c0.161-0.703 0.275-1.424 0.339-2.144l-1.028-0.092c-0.068 0.756-0.18 1.441-0.336 2.108l0.020-0.101zM26.773 26.401l0.741 0.719c0.501-0.519 0.973-1.076 1.4-1.659l-0.832-0.612c-0.401 0.547-0.841 1.067-1.311 1.552zM19.855 30.469l0.265 0.997c0.814-0.217 1.497-0.456 2.157-0.738l-0.104 0.039-0.397-0.952c-0.623 0.26-1.269 0.48-1.921 0.653zM11.539 31.367c0.693 0.2 1.407 0.356 2.12 0.461l0.151-1.021c-0.667-0.097-1.335-0.244-1.984-0.432l-0.287 0.992zM12.22 0.443l0.244 1.003c0.653-0.159 1.327-0.273 2-0.343l-0.105-1.027c-0.72 0.073-1.44 0.197-2.139 0.367zM16.008 30.968l-0.176-0.001-0.009 1.032 0.185 0.001c0.663 0 1.329-0.040 1.981-0.121l-0.128-1.024c-0.556 0.072-1.2 0.113-1.853 0.113h-0z"></path>
</symbol>
<symbol id="icon-second__img2" viewBox="0 0 32 32">
<path fill="#ff00d4" style="fill: var(--color1, #ff00d4)" d="M31.918 15.388l-15.918 16.448-15.918-16.447 6.367-7.959h19.103l6.367 7.959z"></path>
<path fill="#fff" style="fill: var(--color2, #fff)" d="M31.918 14.857h-9.728l3.831-7.177-0.937-0.499-3.827 7.176-4.814-7.22-0.442 0.294-0.442-0.294-4.813 7.219-3.827-7.176-0.938 0.499 3.83 7.181h-9.728v1.060h10.226l5.185 16.081 0.506-0.163 0.506 0.163 5.187-16.082h10.227v-1.061zM20.315 14.857h-8.628l4.314-6.472 4.316 6.472zM16 30.108l-4.577-14.19h9.155l-4.577 14.19zM15.469 4.244h1.062v-1.591h1.591v-1.062h-1.591v-1.591h-1.062v1.592h-1.591v1.061h1.591v1.591zM26.081 5.837h1.062v-1.592h1.591v-1.061h-1.592v-1.591h-1.061v1.591h-1.591v1.062h1.591v1.591zM4.858 5.837h1.061v-1.592h1.591v-1.061h-1.591v-1.591h-1.062v1.591h-1.59v1.062h1.592v1.591z"></path>
</symbol>
<symbol id="icon-second__img1" viewBox="0 0 32 32">
<path fill="#ff00d4" style="fill: var(--color1, #ff00d4)" d="M14.451 5.16l-5.676-1.545-1.395 1.161c-0.419-0.62-0.669-1.384-0.669-2.206 0-0.002 0-0.003 0-0.005v0-1.273c-0.001-0.711 0.577-1.29 1.289-1.29s1.29 0.579 1.29 1.291v0.516c0.010 0.134 0.122 0.24 0.258 0.24s0.248-0.105 0.258-0.239l0-0.001v-0.516c0-0.713 0.579-1.292 1.29-1.292s1.29 0.579 1.29 1.291v0.516c0.010 0.134 0.122 0.24 0.258 0.24s0.248-0.105 0.258-0.239l0-0.001v-0.516c0-0.712 0.579-1.291 1.29-1.291s1.29 0.579 1.29 1.291v1.272c0 0.002 0 0.003 0 0.005 0 0.822-0.25 1.586-0.678 2.22l0.009-0.014-0.364 0.385z"></path>
<path fill="#fff" style="fill: var(--color2, #fff)" d="M6.316 12.902l-1.033-0.516h-1.67v-7.74h-3.613v9.806h3.613v-1.033h1.426l1.033 0.516h0.638v-1.033h-0.394zM2.58 13.418h-1.548v-7.742h1.549v7.742z"></path>
<path fill="#ff00d4" style="fill: var(--color1, #ff00d4)" d="M11.359 24.259c-0.094 0-0.186-0.001-0.281-0.006-3.484-0.14-6.369-3.093-6.432-6.582-0.001-0.041-0.001-0.090-0.001-0.138 0-1.811 0.724-3.454 1.899-4.653l-0.001 0.001c1.107-1.137 1.716-2.558 1.716-3.996l2.58-1.658 1.033 1.033v5.159h3.612l0.604-0.621c1.221 1.207 1.977 2.882 1.977 4.733 0 0.007 0 0.014-0 0.021v-0.001c0 0.007 0 0.015 0 0.024 0 1.893-0.791 3.602-2.060 4.813l-0.003 0.002c-1.195 1.157-2.826 1.87-4.624 1.87-0.007 0-0.014 0-0.021-0h0.001z"></path>
<path fill="#fff" style="fill: var(--color2, #fff)" d="M13.935 16.515v-0.256c-0.001-0.998-0.809-1.807-1.806-1.809h-0.258v-1.032h-1.033v1.033h-0.258c-0.997 0.001-1.805 0.809-1.807 1.806v0c0.001 0.997 0.809 1.805 1.806 1.807h1.549c0.413 0.018 0.742 0.358 0.742 0.775s-0.328 0.756-0.74 0.774l-0.002 0h-1.549c-0 0-0 0-0.001 0-0.427 0-0.773-0.346-0.773-0.773v0-0.26h-1.033v0.26c0.001 0.997 0.809 1.805 1.807 1.805h0.258v1.032h1.033v-1.033h0.257c0.997-0.001 1.805-0.809 1.807-1.806v-0c-0.001-0.997-0.809-1.805-1.806-1.807h-1.548c-0.41-0.022-0.734-0.36-0.734-0.774s0.324-0.752 0.732-0.774l0.002-0h1.549c0.426 0 0.774 0.349 0.774 0.776v0.256h1.033z"></path>
<path fill="#fff" style="fill: var(--color2, #fff)" d="M16.113 7.227c0.247-0.275 0.403-0.636 0.403-1.033 0-0.855-0.695-1.55-1.549-1.55h-1.92l-0.36-0.449-4.033-1.153-3.164 2.635h-2.393v1.033h2.767l3.031-2.525 3.192 0.913 1.086 1.357c0.143 0.18 0.207 0.404 0.178 0.633s-0.147 0.431-0.331 0.568c-0.139 0.104-0.315 0.167-0.505 0.167-0.233 0-0.443-0.094-0.596-0.245l-1.042-1.041-2.941 2.353 0.644 0.806 2.22-1.776 0.388 0.388c0.057 0.057 0.121 0.103 0.183 0.151 0.038 0.377 0.175 0.599 0.385 0.832-0.247 0.275-0.402 0.635-0.402 1.033s0.156 0.759 0.402 1.033c-0.247 0.274-0.402 0.633-0.402 1.031 0 0.855 0.694 1.548 1.549 1.548h2.064c0.855-0 1.548-0.693 1.548-1.548v-0c0-0.398-0.156-0.757-0.403-1.032 0.249-0.271 0.402-0.634 0.403-1.032v-0c0-0.399-0.156-0.758-0.403-1.033 0.248-0.274 0.403-0.634 0.403-1.032s-0.156-0.756-0.403-1.031zM14.968 12.902h-2.065c-0.277-0.011-0.497-0.238-0.497-0.516s0.22-0.505 0.496-0.516l0.001-0h2.065c0.285 0 0.516 0.231 0.516 0.516s-0.231 0.516-0.516 0.516v0zM14.968 10.838h-2.065c-0.285 0-0.516-0.231-0.516-0.516s0.231-0.516 0.516-0.516v0h2.065c0.285 0 0.516 0.231 0.516 0.516s-0.231 0.516-0.516 0.516v0zM14.968 8.773h-1.913c0.223-0.067 0.418-0.167 0.589-0.296l-0.005 0.003c0.26-0.195 0.452-0.451 0.58-0.74h0.748c0.285 0 0.516 0.231 0.516 0.516s-0.231 0.516-0.516 0.516v0zM14.968 6.708h-0.606c-0.049-0.345-0.185-0.651-0.386-0.903l0.003 0.004-0.106-0.132h1.095c0.285 0 0.516 0.231 0.516 0.516s-0.231 0.516-0.516 0.516v0zM28.387 24.257v1.549h-3.456l-1.418-0.945-4.351-1.543c-0.414-0.145-0.858-0.116-1.249 0.083-0.386 0.197-0.675 0.537-0.801 0.948l-0.003 0.011c-0.043 0.138-0.068 0.296-0.068 0.461 0 0.607 0.339 1.135 0.838 1.406l0.008 0.004 1.116 0.593-1.625 0.005-0.668-1.671c-0.216-0.532-0.73-0.901-1.329-0.901-0.001 0-0.003 0-0.004 0h0c-0.478 0.001-0.901 0.235-1.162 0.594l-0.003 0.004c-0.269 0.375-0.342 0.859-0.195 1.296l0.156 0.463-1.132-0.619c-0.205-0.114-0.449-0.18-0.709-0.18-0.597 0-1.111 0.352-1.347 0.861l-0.004 0.009c-0.084 0.18-0.134 0.391-0.134 0.614 0 0.579 0.333 1.080 0.819 1.322l0.009 0.004 2.548 1.257 5.289 1.076 6.862 0.009 2.013-0.402v1.434h3.613v-7.742h-3.613zM15.050 25.457c0.174-0.241 0.592-0.19 0.702 0.086l0.516 1.289-0.931 0.003-0.342-1.015c-0.014-0.039-0.022-0.083-0.022-0.129 0-0.088 0.029-0.169 0.077-0.235l-0.001 0.001zM26.272 29.935h-6.608l-5.044-1.009-2.487-1.226c-0.151-0.074-0.253-0.227-0.253-0.404 0-0.198 0.129-0.366 0.307-0.425l0.003-0.001c0.043-0.015 0.092-0.024 0.143-0.024 0.079 0 0.153 0.021 0.217 0.057l-0.002-0.001 1.773 0.969h4.899l2.036-1.018-2.884-1.534c-0.178-0.097-0.296-0.283-0.296-0.497 0-0.217 0.122-0.405 0.302-0.5l0.003-0.001c0.074-0.039 0.161-0.061 0.254-0.061 0.067 0 0.131 0.012 0.191 0.033l-0.004-0.001 4.174 1.464 1.624 1.083h3.769v2.673l-2.116 0.423zM30.968 30.967h-1.549v-5.678h1.549v5.677z"></path>
</symbol>
</defs>
</svg>
