<svg aria-hidden="true" style="position:absolute;width:0;height:0" xmlns="http://www.w3.org/2000/svg" overflow="hidden"><defs><symbol id="icon-second__img6" viewBox="0 0 32 32"><path fill="var(--color1, #ff00d4)" d="M16 13.696c-1.416 0-2.568-1.152-2.568-2.568S14.584 8.56 16 8.56a2.57 2.57 0 012.568 2.568A2.57 2.57 0 0116 13.696z"/><path fill="var(--color2, #fff)" d="M31.34 22.428h-2.568l-.513-3.596H25.69l-.512-3.596H6.823l-.513 3.596H3.744l-.515 3.596H.661l-.66 4.622h32l-.66-4.622zm-3.972-2.568l.366 2.568H14.905l-.366-2.568h12.828zm-14.381 2.568H10.43l.366-2.568h2.705l.367 2.568h-.881zm-3.596 0h-.649l-.367-2.568h1.384l-.367 2.568zm14.894-6.163l.367 2.568H11.823l-.367-2.568h12.829zm-16.57 0h2.705l.366 2.568H7.348l.367-2.568zM4.632 19.86h2.705l.366 2.568H4.266l.366-2.568zm-3.448 6.162l.367-2.569h2.703l.367 2.568H1.183zm4.476 0l-.367-2.569h1.384l-.366 2.569h-.65zm1.687 0l.367-2.569h2.703l.367 2.568H7.346zm4.476 0l-.367-2.569h1.384l-.366 2.568h-.65zm1.687 0l.367-2.569h2.705l.366 2.568H13.51zm4.477 0l-.367-2.569h12.829l.366 2.568H17.987zM15.487-.17h1.027v5.137h-1.025V-.17zm-2.124 5.703l-.89.513-2.568-4.447.89-.515 2.568 4.448zm-2.445 2.07l-.512.89-4.448-2.569.512-.89 4.451 2.569zm-6.217 3.012h5.135v1.028H4.701v-1.028zm17.462 0h5.135v1.028h-5.135v-1.028zm3.879-4.691l-4.447 2.568-.513-.89 4.447-2.568.513.89zM22.093 1.6l-2.566 4.448-.89-.515 2.566-4.448.89.513z"/></symbol><symbol id="icon-second__img5" viewBox="0 0 32 32"><path fill="var(--color1, #ff00d4)" d="M32 18.58v-5.16h-2.438a9.213 9.213 0 00-.812-1.946l.024.046L30.5 9.796l-3.65-3.65-1.723 1.727a8.877 8.877 0 00-1.834-.77l-.065-.017v-2.44h-5.161v2.445l-.965.281.763.621c2.334 1.901 3.813 4.775 3.813 7.994v.015-.001.013c0 3.22-1.479 6.094-3.795 7.98l-.019.015-.763.621.945.275.02 2.451h5.161v-2.439a9.18 9.18 0 001.945-.811l-.047.024 1.724 1.724 3.65-3.649-1.726-1.724a8.968 8.968 0 00.772-1.835l.017-.065H32zm-10.849 2.036A10.629 10.629 0 0022.194 16v-.001a10.732 10.732 0 00-1.071-4.681l.028.064c2.331.272 4.122 2.235 4.122 4.616s-1.792 4.344-4.1 4.614l-.022.002z"/><path fill="var(--color2, #fff)" d="M11.354 6.709c-5.122 0-9.289 4.168-9.289 9.291s4.167 9.291 9.291 9.291c5.122 0 9.289-4.168 9.289-9.291s-4.167-9.291-9.289-9.291zm0 17.549A8.268 8.268 0 013.098 16a8.267 8.267 0 018.255-8.258h.001A8.268 8.268 0 0119.611 16a8.268 8.268 0 01-8.257 8.258h-.001z"/><path fill="var(--color2, #fff)" d="M12.388 10.323h-.517V8.774H10.84v1.549h-.517a3.1 3.1 0 00-3.097 3.097 3.1 3.1 0 003.097 3.097h2.065c1.138 0 2.065.924 2.065 2.065a2.066 2.066 0 01-2.065 2.063h-2.065a2.066 2.066 0 01-2.065-2.065v-1.031H7.226v1.031a3.1 3.1 0 003.097 3.097h.516v1.549h1.032v-1.549h.517a3.1 3.1 0 003.097-3.096 3.099 3.099 0 00-3.097-3.097h-2.065a2.068 2.068 0 01-2.065-2.065c0-1.139.926-2.065 2.065-2.065h2.065c1.138 0 2.065.926 2.065 2.065v1.031h1.031v-1.031a3.099 3.099 0 00-3.095-3.097z"/><path fill="var(--color2, #fff)" d="M25.806 16v-.009a5.146 5.146 0 00-4.272-5.071l-.03-.004c-1.868-3.714-5.715-6.27-10.149-6.27C5.094 4.646 0 9.738 0 16s5.094 11.354 11.354 11.354c4.435 0 8.281-2.555 10.15-6.27 2.456-.419 4.302-2.532 4.302-5.075v-.01V16zM11.355 26.323C5.663 26.323 1.032 21.692 1.032 16S5.663 5.677 11.355 5.677c5.691 0 10.323 4.631 10.323 10.323s-4.632 10.323-10.323 10.323zm10.668-6.434c.444-1.214.687-2.523.687-3.889v-.008c0-1.393-.252-2.727-.713-3.959l.026.078c1.616.58 2.751 2.099 2.751 3.883v.011a4.119 4.119 0 01-2.721 3.875l-.029.009z"/></symbol><symbol id="icon-second__img4" viewBox="0 0 32 32"><path fill="var(--color2, #fff)" d="M31.484 11.354a4.647 4.647 0 00-4.632 4.365l-.001.013-1.046.785V8.776h-1.032v5.229l-2.08-1.385a4.651 4.651 0 00-4.629-4.36h-.516v.516a4.647 4.647 0 004.466 4.636h.009l2.751 1.833v3.337h-4.129v13.42h9.29v-13.42h-4.129v-.774l1.733-1.299A4.648 4.648 0 0032 11.873v-.516h-.516zm-12.86-2.019a3.63 3.63 0 013.008 2.988l.003.021a3.63 3.63 0 01-3.008-2.988l-.003-.021zm6.15 12.343v1.033h-1.033v-1.033h1.033zm0 2.065v1.033h-1.033v-1.033h1.033zm0 2.064v1.032h-1.033v-1.032h1.033zm0 2.065v1.032h-1.033v-1.032h1.033zm0 2.065v1.032h-1.033v-1.032h1.033zm1.032 0h1.033v1.032h-1.033v-1.032zm0-1.033v-1.032h1.033v1.032h-1.033zm0-2.064v-1.033h1.033v1.032h-1.033zm0-2.064v-1.033h1.033v1.033h-1.033zm0-2.065v-1.033h1.033v1.033h-1.033zm0-2.065v-1.033h1.033v1.033h-1.033zm-1.032 0h-1.033v-1.033h1.033v1.033zm-3.097-1.033h1.033v1.033h-1.032v-1.033zm0 2.065h1.033v1.033h-1.032v-1.033zm0 2.065h1.033v1.033h-1.032v-1.033zm0 2.064h1.033v1.032h-1.032v-1.032zm0 2.065h1.033v1.032h-1.032v-1.032zm0 2.065h1.033v1.032h-1.032v-1.032zm7.227 1.031h-1.033v-1.032h1.033v1.032zm0-2.064h-1.033v-1.032h1.033v1.032zm0-2.064h-1.033v-1.033h1.033v1.032zm0-2.064h-1.033v-1.033h1.033v1.033zm0-2.065h-1.033v-1.033h1.033v1.033zm0-2.065h-1.033v-1.033h1.033v1.033zm-.99-5.204a3.628 3.628 0 012.99-3.01l.021-.003a3.629 3.629 0 01-2.99 3.008l-.021.003z"/><path fill="var(--color1, #ff00d4)" d="M25.29 9.29a4.65 4.65 0 01-4.645-4.646A4.65 4.65 0 0125.29 0a4.65 4.65 0 014.645 4.645A4.65 4.65 0 0125.29 9.29z"/><path fill="var(--color2, #fff)" d="M25.806 6.194h-1.032a.517.517 0 01-.517-.517h-1.032a1.55 1.55 0 001.549 1.549v.516h1.032v-.516c.854 0 1.549-.695 1.549-1.549s-.695-1.549-1.549-1.549h-1.032a.518.518 0 01-.002-1.032h1.034c.284 0 .516.232.516.517h1.033a1.55 1.55 0 00-1.549-1.549v-.516h-1.032v.516a1.55 1.55 0 00-.003 3.098h1.035a.518.518 0 01.002 1.032h-.002zm-15.483 18.58V32h9.29v-9.29h-9.29v2.065zm1.032 1.032h1.032v1.032h-1.032v-1.032zm2.065 1.032v-1.032h1.032v1.032H13.42zm1.031 1.033v1.032h-1.032v-1.032h1.032zm0 2.064v1.032h-1.032v-1.032h1.032zm1.033 0h1.032v1.032h-1.032v-1.032zm0-1.033V27.87h1.032v1.032h-1.032zm0-2.063v-1.033h1.032v1.032h-1.032zm0-2.065v-1.033h1.032v1.033h-1.032zm-1.033 0h-1.032v-1.033h1.032v1.033zm-3.096 3.097h1.032v1.032h-1.032v-1.032zm0 2.064h1.032v1.032h-1.032v-1.032zm7.225 1.032h-1.032v-1.032h1.032v1.032zm0-2.065h-1.032V27.87h1.032v1.032zm0-2.063h-1.032v-1.033h1.032v1.032zm0-2.065h-1.032v-1.033h1.032v1.033zm-7.225-1.033h1.032v1.033h-1.032v-1.033zM0 28.902V32h9.29v-5.161H0v2.063zm1.033 1.033h1.032v1.032H1.033v-1.032zm4.128 0h1.033v1.032H5.161v-1.032zm-1.032 1.032H3.096v-1.032h1.033v1.032zm1.032-2.065V27.87h1.033v1.032H5.161zm-1.032 0H3.096V27.87h1.033v1.032zm4.13 2.065H7.226v-1.032h1.033v1.032zm0-2.065H7.226V27.87h1.033v1.032zm-7.226-1.031h1.032v1.032H1.033v-1.032zm6.861-13.233l4.282 2.676 3.436-11.777.96 1.92.923-.462-1.779-3.558-3.558 1.779.461.923 2.042-1.019-3.091 10.597-3.976-2.484L.089 24.487l.858.572 6.949-10.422z"/></symbol><symbol id="icon-second__img3" viewBox="0 0 32 32"><path fill="var(--color2, #fff)" d="M24.633 17.393l-.731-.731a.944.944 0 000-1.334.964.964 0 00-1.334 0l-.732-.731.517-.516a.944.944 0 000-1.334.963.963 0 00-1.336 0l-.516.516-.729-.729 1.032-1.033a.945.945 0 00-1.336-1.334l.001-.001-1.033 1.032-.729-.729.516-.517a.933.933 0 00.276-.664v-.003a.945.945 0 00-1.61-.666l-.517.515-.729-.729.516-.516a1.978 1.978 0 013.345 1.062l.002.012a1.979 1.979 0 012.501 2.519l.004-.014a1.982 1.982 0 011.545 2.596l.004-.014a1.982 1.982 0 011.651 1.951c0 .545-.22 1.038-.576 1.395zm-7.957 5.98l-1.48 1.48-3.6 1.543L6.369 31.1l.691.767 1.756-1.58c.209.107.417.215.629.309l.423-.941c-.076-.035-.151-.076-.227-.111l2.517-2.267 3.627-1.553 1.62-1.62-.729-.729z"/><path fill="var(--color1, #ff00d4)" d="M13.295 5.456l-7.827 7.827 1.8 1.8 1.775-1.717a1.089 1.089 0 011.673 1.377l.002-.004-1.517 2.275 9.52 9.52 7.827-7.827L13.295 5.455zm4.592 12.419a2.657 2.657 0 11-3.757-3.758 2.657 2.657 0 013.756 3.758z"/><path fill="var(--color2, #fff)" d="M16.008 19.168H16a3.14 3.14 0 01-2.234-.929 3.141 3.141 0 01-.931-2.236v-.007c0-.848.331-1.645.931-2.244A3.14 3.14 0 0116 12.823h.009c.848 0 1.645.329 2.244.929.6.6.929 1.396.929 2.244s-.331 1.644-.929 2.243c-.6.6-1.396.929-2.244.929zm0-5.313c-.571 0-1.108.224-1.513.627a2.132 2.132 0 00-.627 1.515c0 .571.223 1.108.627 1.513.404.404.941.627 1.513.627s1.109-.223 1.513-.627c.405-.404.627-.941.627-1.513 0-.571-.223-1.109-.627-1.513a2.12 2.12 0 00-1.507-.627h-.007zm-7.657 4.436l.859.573 2.368-3.553a2.121 2.121 0 00-.266-2.676 2.124 2.124 0 00-3 0l-3.105 3.107-1.032 5.161-1.631 1.632c-.044-.091-.093-.179-.136-.269l-.937.433c.095.204.2.403.305.604L.155 24.924l.731.729 4.24-4.24 1.033-5.163 2.884-2.885a1.089 1.089 0 011.673 1.377l.002-.004L8.35 18.29zm-6.239-7.88l-.957-.385a14.705 14.705 0 00-.646 1.956l-.024.111 1 .249c.165-.653.376-1.304.628-1.931zm2.009-3.52l-.819-.629c-.44.573-.844 1.181-1.201 1.809l.896.511c.335-.587.713-1.155 1.124-1.691zM.208 18.555c.113.712.279 1.424.489 2.116l.987-.301a13.737 13.737 0 01-.446-1.891l-.012-.087-1.019.163zm.828-2.559c0-.553.031-1.111.091-1.656L.1 14.227a15.663 15.663 0 00-.09 2.189v-.021l1.032-.025a13.621 13.621 0 01-.005-.369v-.004zM29.32 7.111c-.4-.6-.847-1.177-1.323-1.717l-.773.684c.447.505.864 1.047 1.24 1.608l.857-.573zM6.999 4.037l-.623-.824c-.575.433-1.127.912-1.64 1.42l.727.733c.48-.476.997-.923 1.536-1.329zm23.966 11.272l1.031-.047a16.229 16.229 0 00-.26-2.256l.016.1-1.016.185c.121.663.197 1.341.229 2.017zm.252-4.306a15.72 15.72 0 00-.857-2.106l.042.094-.929.453c.296.607.552 1.24.763 1.88l.981-.321zM10.529 2.057l-.377-.96c-.671.264-1.329.576-1.96.929l.507.9a14.879 14.879 0 011.831-.869zm5.964-1.025c.677.021 1.356.089 2.02.201l.172-1.019A15.428 15.428 0 0016.552 0l-.026-.001-.033 1.032zm7.098 27.877l.524.889a15.872 15.872 0 001.791-1.225l-.64-.809c-.488.387-1.034.765-1.605 1.107l-.069.038zm.562-25.477c.567.367 1.113.777 1.624 1.219l.676-.783a16.424 16.424 0 00-1.737-1.303l-.563.867zm-3.665-1.727c.645.201 1.28.451 1.893.737l.44-.933A15.98 15.98 0 0020.796.72l-.309.985zm8.683 21.428l.908.493c.345-.633.649-1.299.905-1.973l-.967-.364a14.773 14.773 0 01-.847 1.845zm1.433-3.789l1.005.231c.161-.703.275-1.424.339-2.144l-1.028-.092a15.06 15.06 0 01-.336 2.108l.02-.101zm-3.831 7.057l.741.719c.501-.519.973-1.076 1.4-1.659l-.832-.612a14.856 14.856 0 01-1.311 1.552zm-6.918 4.068l.265.997a15.553 15.553 0 002.157-.738l-.104.039-.397-.952c-.623.26-1.269.48-1.921.653zm-8.316.898c.693.2 1.407.356 2.12.461l.151-1.021a14.835 14.835 0 01-1.984-.432l-.287.992zM12.22.443l.244 1.003a15.083 15.083 0 012-.343L14.359.076c-.72.073-1.44.197-2.139.367zm3.788 30.525l-.176-.001-.009 1.032.185.001c.663 0 1.329-.04 1.981-.121l-.128-1.024c-.556.072-1.2.113-1.853.113z"/></symbol><symbol id="icon-second__img2" viewBox="0 0 32 32"><path fill="var(--color1, #ff00d4)" d="M31.918 15.388L16 31.836.082 15.389 6.449 7.43h19.103l6.367 7.959z"/><path fill="var(--color2, #fff)" d="M31.918 14.857H22.19l3.831-7.177-.937-.499-3.827 7.176-4.814-7.22-.442.294-.442-.294-4.813 7.219L6.919 7.18l-.938.499 3.83 7.181H.083v1.06h10.226l5.185 16.081.506-.163.506.163 5.187-16.082H31.92v-1.061zm-11.603 0h-8.628l4.314-6.472 4.316 6.472zM16 30.108l-4.577-14.19h9.155l-4.577 14.19zm-.531-25.864h1.062V2.653h1.591V1.591h-1.591V0h-1.062v1.592h-1.591v1.061h1.591v1.591zm10.612 1.593h1.062V4.245h1.591V3.184h-1.592V1.593h-1.061v1.591H24.49v1.062h1.591v1.591zm-21.223 0h1.061V4.245H7.51V3.184H5.919V1.593H4.857v1.591h-1.59v1.062h1.592v1.591z"/></symbol><symbol id="icon-second__img1" viewBox="0 0 32 32"><path fill="var(--color1, #ff00d4)" d="M14.451 5.16L8.775 3.615 7.38 4.776a3.938 3.938 0 01-.669-2.206V1.292a1.29 1.29 0 112.579.001v.516a.259.259 0 00.516.001v-.517c0-.713.579-1.292 1.29-1.292s1.29.579 1.29 1.291v.516a.259.259 0 00.516.001v-.517c0-.712.579-1.291 1.29-1.291s1.29.579 1.29 1.291v1.277c0 .822-.25 1.586-.678 2.22l.009-.014-.364.385z"/><path fill="var(--color2, #fff)" d="M6.316 12.902l-1.033-.516h-1.67v-7.74H0v9.806h3.613v-1.033h1.426l1.033.516h.638v-1.033h-.394zm-3.736.516H1.032V5.676h1.549v7.742z"/><path fill="var(--color1, #ff00d4)" d="M11.359 24.259c-.094 0-.186-.001-.281-.006-3.484-.14-6.369-3.093-6.432-6.582l-.001-.138c0-1.811.724-3.454 1.899-4.653l-.001.001c1.107-1.137 1.716-2.558 1.716-3.996l2.58-1.658 1.033 1.033v5.159h3.612l.604-.621a6.635 6.635 0 011.977 4.733v.021-.001.024a6.634 6.634 0 01-2.06 4.813l-.003.002a6.627 6.627 0 01-4.624 1.87h-.021.001z"/><path fill="var(--color2, #fff)" d="M13.935 16.515v-.256a1.81 1.81 0 00-1.806-1.809h-.258v-1.032h-1.033v1.033h-.258a1.81 1.81 0 00-1.807 1.806 1.81 1.81 0 001.806 1.807h1.549a.776.776 0 01.002 1.549h-1.552a.773.773 0 01-.773-.773v-.26H8.772v.26a1.807 1.807 0 001.807 1.805h.258v1.032h1.033v-1.033h.257a1.81 1.81 0 001.807-1.806 1.81 1.81 0 00-1.806-1.807H10.58a.775.775 0 01-.002-1.548h1.551c.426 0 .774.349.774.776v.256h1.033z"/><path fill="var(--color2, #fff)" d="M16.113 7.227c.247-.275.403-.636.403-1.033 0-.855-.695-1.55-1.549-1.55h-1.92l-.36-.449-4.033-1.153L5.49 5.677H3.097V6.71h2.767l3.031-2.525 3.192.913 1.086 1.357a.84.84 0 01-.153 1.201.843.843 0 01-1.101-.078l-1.042-1.041L7.936 8.89l.644.806L10.8 7.92l.388.388c.057.057.121.103.183.151.038.377.175.599.385.832-.247.275-.402.635-.402 1.033s.156.759.402 1.033a1.535 1.535 0 00-.402 1.031c0 .855.694 1.548 1.549 1.548h2.064a1.54 1.54 0 001.145-2.58c.249-.271.402-.634.403-1.032a1.54 1.54 0 00-.403-1.033c.248-.274.403-.634.403-1.032s-.156-.756-.403-1.031zm-1.145 5.675h-2.065a.517.517 0 01-.001-1.032h2.066a.516.516 0 110 1.032zm0-2.064h-2.065a.516.516 0 110-1.032h2.065a.516.516 0 110 1.032zm0-2.065h-1.913c.223-.067.418-.167.589-.296l-.005.003a1.85 1.85 0 00.58-.74h.748a.516.516 0 110 1.032zm0-2.065h-.606a1.856 1.856 0 00-.386-.903l.003.004-.106-.132h1.095a.516.516 0 110 1.032zm13.419 17.549v1.549h-3.456l-1.418-.945-4.351-1.543a1.58 1.58 0 00-1.249.083 1.588 1.588 0 00-.801.948l-.003.011a1.6 1.6 0 00.77 1.867l.008.004 1.116.593-1.625.005-.668-1.671a1.434 1.434 0 00-1.329-.901h-.004a1.438 1.438 0 00-1.162.594l-.003.004a1.44 1.44 0 00-.195 1.296l.156.463-1.132-.619a1.483 1.483 0 00-2.056.681l-.004.009a1.475 1.475 0 00.685 1.936l.009.004 2.548 1.257 5.289 1.076 6.862.009 2.013-.402v1.434H32v-7.742h-3.613zm-13.337 1.2c.174-.241.592-.19.702.086l.516 1.289-.931.003-.342-1.015a.398.398 0 01.055-.364l-.001.001zm11.222 4.478h-6.608l-5.044-1.009-2.487-1.226a.449.449 0 01.054-.829l.003-.001a.438.438 0 01.36.033l-.002-.001 1.773.969h4.899l2.036-1.018-2.884-1.534a.564.564 0 01.006-.997l.003-.001a.576.576 0 01.445-.028l-.004-.001 4.174 1.464 1.624 1.083h3.769v2.673l-2.116.423zm4.696 1.032h-1.549v-5.678h1.549v5.677z"/></symbol></defs></svg>