<svg width="44" height="44" fill="none" xmlns="http://www.w3.org/2000/svg"><path d="M19.87 7.095 12.065 4.97l-1.918 1.596a5.46 5.46 0 0 1-.92-3.04v-1.75C9.226.798 10.02.002 11 .002s1.774.796 1.774 1.775v.71a.356.356 0 0 0 .71 0v-.71C13.484.797 14.28 0 15.258 0c.979 0 1.774.796 1.774 1.775v.71a.356.356 0 0 0 .71 0v-.71c0-.979.796-1.775 1.774-1.775.979 0 1.774.796 1.774 1.775v1.749a5.459 5.459 0 0 1-.92 3.04l-.5.53Z" fill="#FF00D4"/><path d="m8.684 17.74-1.42-.71H4.968V6.387H0v13.483h4.968V18.45h1.961l1.42.71h.877v-1.42h-.542Zm-5.136.71H1.42V7.805h2.13V18.45Z" fill="#fff"/><path d="M15.618 33.356c-.129 0-.256-.002-.386-.008-4.79-.193-8.758-4.253-8.844-9.05a9.146 9.146 0 0 1 2.607-6.587c1.522-1.564 2.36-3.517 2.36-5.495l3.548-2.28 1.42 1.42v7.094h4.967l.831-.854a9.15 9.15 0 0 1 2.718 6.535 9.148 9.148 0 0 1-2.836 6.654 9.147 9.147 0 0 1-6.385 2.571Z" fill="#FF00D4"/><path d="M19.161 22.708v-.352a2.489 2.489 0 0 0-2.484-2.487h-.354V18.45h-1.42v1.42h-.355a2.487 2.487 0 0 0-2.484 2.483 2.487 2.487 0 0 0 2.484 2.484h2.13a1.066 1.066 0 0 1 0 2.13h-2.13a1.063 1.063 0 0 1-1.064-1.063v-.357h-1.42v.357a2.484 2.484 0 0 0 2.484 2.482h.355v1.419h1.42v-1.42h.354a2.487 2.487 0 0 0 2.484-2.483 2.487 2.487 0 0 0-2.484-2.484h-2.129a1.066 1.066 0 0 1 0-2.129h2.13c.586 0 1.064.48 1.064 1.067v.352h1.42Z" fill="#fff"/><path d="M22.156 9.937c.34-.378.554-.874.554-1.42 0-1.175-.956-2.131-2.13-2.131h-2.64l-.495-.618L11.9 4.182 7.55 7.805H4.26v1.42h3.804l4.168-3.472 4.389 1.255 1.493 1.866c.197.247.285.556.245.87-.04.313-.202.592-.455.781a1.165 1.165 0 0 1-1.514-.108l-1.433-1.432-4.044 3.236.886 1.108 3.053-2.442.533.534c.079.079.166.142.252.208.052.518.24.823.53 1.144-.34.378-.553.873-.553 1.42 0 .547.214 1.043.553 1.42-.34.377-.553.87-.553 1.418a2.13 2.13 0 0 0 2.13 2.129h2.838a2.13 2.13 0 0 0 2.129-2.128c0-.547-.214-1.041-.554-1.419a2.11 2.11 0 0 0 .554-1.419c0-.548-.214-1.042-.554-1.42.341-.377.554-.872.554-1.419s-.214-1.04-.554-1.418Zm-1.575 7.803h-2.84a.71.71 0 0 1 0-1.419h2.84a.71.71 0 0 1 0 1.42Zm0-2.838h-2.84a.71.71 0 0 1 0-1.42h2.84a.71.71 0 0 1 0 1.42Zm0-2.839h-2.63a2.55 2.55 0 0 0 .804-.402c.357-.268.621-.62.797-1.017h1.029a.71.71 0 0 1 0 1.42Zm0-2.839h-.833a2.554 2.554 0 0 0-.527-1.237l-.146-.182h1.506a.71.71 0 0 1 0 1.42ZM39.032 33.353v2.13H34.28l-1.95-1.3-5.982-2.122c-.569-.2-1.18-.16-1.718.114a2.174 2.174 0 0 0-1.106 1.319 2.197 2.197 0 0 0 1.07 2.572l1.535.816-2.234.007-.918-2.297a1.967 1.967 0 0 0-1.833-1.239 1.98 1.98 0 0 0-1.602.822c-.37.516-.47 1.181-.268 1.782l.215.637-1.557-.851a2.04 2.04 0 0 0-2.832.948 2.03 2.03 0 0 0 .954 2.667l3.503 1.729 7.272 1.479 9.435.013 2.768-.553v1.972H44V33.353h-4.968Zm-18.338 1.65c.239-.332.814-.261.965.118l.71 1.773-1.28.004-.47-1.395a.548.548 0 0 1 .075-.5Zm15.43 6.157h-9.086l-6.936-1.388-3.42-1.686a.616.616 0 0 1 .078-1.141.602.602 0 0 1 .492.044l2.438 1.332h6.736l2.8-1.4-3.966-2.109a.776.776 0 0 1 .012-1.372.767.767 0 0 1 .606-.04l5.739 2.013 2.233 1.489h5.182v3.676l-2.909.582Zm6.457 1.42h-2.13v-7.807h2.13v7.806Z" fill="#fff"/></svg>