<svg width="25" height="25" fill="none" xmlns="http://www.w3.org/2000/svg"><path d="M24.597 8.87a3.63 3.63 0 0 0-3.619 3.42l-.817.613V6.855h-.806v4.085L17.73 9.858a3.631 3.631 0 0 0-3.617-3.406h-.403v.403a3.63 3.63 0 0 0 3.496 3.622l2.149 1.432v2.607h-3.226V25h7.258V14.516h-3.226v-.605l1.354-1.015A3.63 3.63 0 0 0 25 9.274v-.403h-.403ZM14.55 7.293a2.829 2.829 0 0 1 2.352 2.351 2.829 2.829 0 0 1-2.352-2.351Zm4.805 9.643v.807h-.807v-.807h.807Zm0 1.613v.807h-.807v-.807h.807Zm0 1.613v.806h-.807v-.806h.807Zm0 1.613v.806h-.807v-.806h.807Zm0 1.613v.806h-.807v-.806h.807Zm.806 0h.807v.806h-.807v-.806Zm0-.807v-.806h.807v.806h-.807Zm0-1.612v-.807h.807v.806h-.807Zm0-1.613v-.807h.807v.807h-.807Zm0-1.613v-.807h.807v.807h-.807Zm0-1.613v-.807h.807v.807h-.807Zm-.806 0h-.807v-.807h.807v.807Zm-2.42-.807h.807v.807h-.806v-.807Zm0 1.613h.807v.807h-.806v-.807Zm0 1.613h.807v.807h-.806v-.807Zm0 1.613h.807v.806h-.806v-.806Zm0 1.613h.807v.806h-.806v-.806Zm0 1.613h.807v.806h-.806v-.806Zm5.646.806h-.807v-.806h.807v.806Zm0-1.613h-.807v-.806h.807v.806Zm0-1.612h-.807v-.807h.807v.806Zm0-1.613h-.807v-.807h.807v.807Zm0-1.613h-.807v-.807h.807v.807Zm0-1.613h-.807v-.807h.807v.807Zm-.773-4.066A2.829 2.829 0 0 1 24.16 9.71a2.828 2.828 0 0 1-2.352 2.352Z" fill="#fff"/><path d="M19.758 7.258a3.633 3.633 0 0 1-3.629-3.63A3.633 3.633 0 0 1 19.758 0a3.633 3.633 0 0 1 3.629 3.629 3.633 3.633 0 0 1-3.629 3.629Z" fill="#FF00D4"/><path d="M20.161 4.839h-.806a.404.404 0 0 1-.404-.404h-.806c0 .667.543 1.21 1.21 1.21v.403h.806v-.403c.667 0 1.21-.543 1.21-1.21 0-.667-.543-1.21-1.21-1.21h-.806a.404.404 0 0 1 0-.806h.806c.222 0 .403.181.403.404h.807c0-.667-.543-1.21-1.21-1.21V1.21h-.806v.403a1.211 1.211 0 0 0 0 2.42h.806a.404.404 0 0 1 0 .806ZM8.065 19.355V25h7.258V17.742H8.065v1.613Zm.806.806h.806v.806h-.806v-.806Zm1.613.806v-.806h.806v.806h-.806Zm.806.807v.806h-.806v-.806h.806Zm0 1.613v.806h-.806v-.806h.806Zm.807 0h.806v.806h-.806v-.806Zm0-.807v-.806h.806v.806h-.806Zm0-1.612v-.807h.806v.806h-.806Zm0-1.613v-.807h.806v.807h-.806Zm-.807 0h-.806v-.807h.806v.807Zm-2.419 2.419h.806v.806h-.806v-.806Zm0 1.613h.806v.806h-.806v-.806Zm5.645.806h-.806v-.806h.806v.806Zm0-1.613h-.806v-.806h.806v.806Zm0-1.612h-.806v-.807h.806v.806Zm0-1.613h-.806v-.807h.806v.807Zm-5.645-.807h.806v.807h-.806v-.807ZM0 22.58V25h7.258v-4.032H0v1.612Zm.807.807h.806v.806H.807v-.806Zm3.225 0h.807v.806h-.807v-.806Zm-.806.806h-.807v-.806h.807v.806Zm.806-1.613v-.806h.807v.806h-.807Zm-.806 0h-.807v-.806h.807v.806Zm3.226 1.613h-.807v-.806h.807v.806Zm0-1.613h-.807v-.806h.807v.806Zm-5.645-.806h.806v.806H.807v-.806ZM6.167 11.436l3.345 2.091 2.684-9.201.75 1.5.721-.361-1.39-2.78-2.78 1.39.36.721L11.452 4l-2.415 8.279-3.106-1.941L.068 19.13l.67.447 5.429-8.142Z" fill="#fff"/></svg>