<svg width="25" height="25" fill="none" xmlns="http://www.w3.org/2000/svg"><g clip-path="url(#a)"><path d="M12.5 10.7c-1.106 0-2.006-.9-2.006-2.006 0-1.106.9-2.006 2.006-2.006 1.106 0 2.006.9 2.006 2.006 0 1.107-.9 2.006-2.006 2.006Z" fill="#FF00D4"/><path d="M24.484 17.522h-2.006l-.401-2.809H20.07l-.4-2.809H5.33l-.401 2.809H2.924l-.402 2.809H.516L0 21.133h25l-.516-3.611Zm-3.103-2.006.286 2.006H11.644l-.286-2.006H21.38Zm-11.235 2.006H8.148l.286-2.006h2.113l.287 2.006h-.688Zm-2.809 0H6.83l-.287-2.006h1.081l-.287 2.006Zm11.636-4.815.287 2.006H9.237l-.287-2.006h10.023Zm-12.946 0H8.14l.286 2.006H5.74l.287-2.006Zm-2.408 2.809h2.113l.286 2.006H3.333l.286-2.006ZM.925 20.33l.287-2.007h2.112l.287 2.006H.925Zm3.497 0-.287-2.007h1.081L4.93 20.33h-.508Zm1.318 0 .287-2.007h2.112l.287 2.006H5.74Zm3.497 0-.287-2.007h1.081l-.286 2.006h-.508Zm1.318 0 .287-2.007h2.113l.286 2.006h-2.686Zm3.497 0-.287-2.007h10.023l.286 2.006H14.052ZM12.099-.133h.802V3.88H12.1V-.133ZM10.44 4.323l-.695.401L7.739 1.25l.695-.402 2.006 3.475ZM8.53 5.94l-.4.695-3.475-2.007.4-.695L8.532 5.94ZM3.673 8.293h4.012v.803H3.673v-.803ZM17.315 8.293h4.012v.803h-4.012v-.803ZM20.345 4.628l-3.474 2.006-.401-.695 3.474-2.006.401.695ZM17.26 1.25l-2.005 3.475-.695-.402L16.565.848l.695.401Z" fill="#fff"/></g><defs><clipPath id="a"><path fill="#fff" d="M0 0h25v25H0z"/></clipPath></defs></svg>