<svg width="24" height="24" fill="none" xmlns="http://www.w3.org/2000/svg"><path d="m18.475 13.045-.548-.548a.709.709 0 0 0 0-1.001.725.725 0 0 0-1 0l-.549-.548.388-.387a.709.709 0 0 0 0-1.001.725.725 0 0 0-1.002 0l-.387.387-.547-.547.774-.775a.709.709 0 0 0-1.001-1.001l-.775.774-.547-.547.387-.388a.703.703 0 0 0 .207-.5.709.709 0 0 0-1.208-.5l-.388.386-.547-.547.387-.387a1.484 1.484 0 0 1 2.51.805 1.484 1.484 0 0 1 1.879 1.879 1.484 1.484 0 0 1 1.162 1.936 1.484 1.484 0 0 1 .806 2.51ZM12.507 17.53l-1.11 1.11-2.7 1.157-3.92 3.528.518.575 1.317-1.185c.157.08.313.161.472.232l.317-.706c-.057-.026-.113-.057-.17-.083l1.888-1.7 2.72-1.165 1.215-1.215-.547-.547Z" fill="#fff"/><path d="m9.971 4.092-5.87 5.87 1.35 1.35 1.327-1.283.004-.005a.817.817 0 0 1 1.257 1.03L6.901 12.76l7.14 7.14 5.87-5.87-9.94-9.939Zm3.444 9.314a1.993 1.993 0 1 1-2.818-2.819 1.993 1.993 0 0 1 2.818 2.819Z" fill="#FF00D4"/><path d="M12.006 14.376a2.363 2.363 0 0 1-1.682-.697 2.363 2.363 0 0 1-.698-1.682c0-.636.248-1.234.698-1.683a2.363 2.363 0 0 1 1.682-.697c.636 0 1.234.247 1.683.697.45.45.697 1.047.697 1.683 0 .636-.248 1.233-.697 1.682-.45.45-1.047.697-1.683.697Zm0-3.985c-.428 0-.831.168-1.135.47-.303.304-.47.707-.47 1.136 0 .428.167.831.47 1.135.303.303.706.47 1.135.47.429 0 .832-.167 1.135-.47.304-.303.47-.706.47-1.135 0-.428-.167-.832-.47-1.135a1.594 1.594 0 0 0-1.135-.47ZM6.263 13.718l.644.43 1.776-2.665a1.595 1.595 0 0 0-.199-2.007c-.62-.62-1.63-.62-2.25 0l-2.329 2.33-.774 3.871-1.223 1.224c-.033-.068-.07-.134-.102-.202l-.703.325c.071.153.15.302.229.453L.116 18.693l.548.547 3.18-3.18.775-3.872 2.163-2.164a.817.817 0 0 1 1.257 1.03l-1.776 2.664ZM1.584 7.808l-.718-.289a12.013 12.013 0 0 0-.503 1.55l.75.187c.124-.49.282-.978.471-1.448ZM3.091 5.168l-.614-.472c-.33.43-.633.886-.901 1.357l.672.383c.251-.44.535-.866.843-1.268ZM.156 13.916c.085.534.209 1.068.367 1.587l.74-.226a11.165 11.165 0 0 1-.343-1.483l-.764.122ZM.777 11.997c0-.415.023-.833.068-1.242l-.77-.085a12.121 12.121 0 0 0-.068 1.626l.774-.019a13.77 13.77 0 0 1-.004-.28ZM21.99 5.333c-.3-.45-.635-.883-.992-1.288l-.58.513c.335.379.648.785.93 1.206l.643-.43ZM5.249 3.028l-.467-.618c-.431.325-.845.684-1.23 1.065l.545.55c.36-.357.748-.692 1.152-.997ZM23.224 11.482l.773-.035a12.065 12.065 0 0 0-.183-1.617l-.762.139c.091.497.148 1.006.172 1.513ZM23.413 8.252a12.043 12.043 0 0 0-.611-1.509l-.697.34c.222.455.414.93.572 1.41l.736-.241ZM7.897 1.543l-.283-.72c-.503.198-.997.432-1.47.697l.38.675c.44-.247.903-.467 1.373-.652ZM12.37.774c.508.016 1.017.067 1.515.151l.129-.764A12.108 12.108 0 0 0 12.395 0l-.025.774ZM17.693 21.682l.393.667c.466-.274.918-.583 1.343-.919l-.48-.607a11.41 11.41 0 0 1-1.256.859ZM18.115 2.574c.425.275.835.583 1.218.914l.507-.587c-.411-.353-.849-.682-1.303-.977l-.422.65ZM15.366 1.279c.484.151.96.338 1.42.553l.33-.7C16.625.9 16.113.702 15.597.54l-.232.739ZM21.878 17.35l.681.37c.259-.475.487-.974.679-1.48l-.725-.273c-.179.473-.392.939-.635 1.384ZM22.953 14.508l.754.173c.121-.527.206-1.068.254-1.608l-.771-.069a11.186 11.186 0 0 1-.237 1.505ZM20.08 19.801l.556.539c.376-.389.73-.807 1.05-1.244l-.624-.459c-.301.41-.631.8-.983 1.164ZM14.891 22.852l.199.748a11.896 11.896 0 0 0 1.54-.524l-.298-.714c-.467.195-.952.36-1.441.49ZM8.654 23.525c.52.15 1.055.267 1.59.346l.113-.766c-.5-.073-1.001-.183-1.488-.324l-.215.744ZM9.165.332l.183.752c.49-.119.995-.205 1.5-.257l-.079-.77c-.54.055-1.08.148-1.604.275ZM12.006 23.226l-.132-.001-.007.774.139.001c.497 0 .997-.03 1.486-.091l-.096-.768a11.46 11.46 0 0 1-1.39.085Z" fill="#fff"/></svg>