<svg width="27" height="27" fill="none" xmlns="http://www.w3.org/2000/svg"><path d="M27 15.677v-4.354h-2.057a7.787 7.787 0 0 0-.665-1.603l1.456-1.455-3.08-3.08L21.2 6.642a7.762 7.762 0 0 0-1.602-.664V3.919h-4.355v2.063l-.814.237.644.524A8.679 8.679 0 0 1 18.29 13.5a8.68 8.68 0 0 1-3.218 6.757l-.644.524.797.232.017 2.068h4.355v-2.058a7.792 7.792 0 0 0 1.602-.664l1.455 1.455 3.08-3.079-1.456-1.455a7.761 7.761 0 0 0 .665-1.603H27Zm-9.154 1.718a9.1 9.1 0 0 0 .88-3.895 9.093 9.093 0 0 0-.88-3.895 3.92 3.92 0 0 1 0 7.79Z" fill="#FF00D4"/><path d="M9.58 5.661c-4.322 0-7.838 3.517-7.838 7.839 0 4.322 3.516 7.839 7.839 7.839 4.322 0 7.838-3.517 7.838-7.839 0-4.322-3.516-7.839-7.838-7.839Zm0 14.807A6.976 6.976 0 0 1 2.614 13.5 6.976 6.976 0 0 1 9.58 6.532a6.976 6.976 0 0 1 6.967 6.968 6.976 6.976 0 0 1-6.967 6.968Z" fill="#fff"/><path d="M10.452 8.71h-.436V7.403h-.87V8.71H8.71a2.616 2.616 0 0 0-2.613 2.613 2.616 2.616 0 0 0 2.613 2.613h1.742c.96 0 1.742.78 1.742 1.742 0 .96-.782 1.741-1.742 1.741H8.71c-.961 0-1.742-.78-1.742-1.742v-.87h-.871v.87A2.616 2.616 0 0 0 8.71 18.29h.435v1.307h.871V18.29h.436a2.615 2.615 0 0 0 2.613-2.612 2.615 2.615 0 0 0-2.613-2.613H8.71c-.961 0-1.742-.782-1.742-1.742 0-.961.781-1.742 1.742-1.742h1.742c.96 0 1.742.781 1.742 1.742v.87h.87v-.87a2.615 2.615 0 0 0-2.612-2.613Z" fill="#fff"/><path d="M21.774 13.5a4.341 4.341 0 0 0-3.63-4.29c-1.576-3.134-4.822-5.29-8.563-5.29C4.298 3.92 0 8.216 0 13.5s4.298 9.58 9.58 9.58c3.742 0 6.987-2.156 8.564-5.29a4.341 4.341 0 0 0 3.63-4.29ZM9.581 22.21c-4.803 0-8.71-3.907-8.71-8.71 0-4.803 3.907-8.71 8.71-8.71 4.802 0 8.71 3.907 8.71 8.71 0 4.803-3.908 8.71-8.71 8.71Zm9.001-5.429c.375-1.024.58-2.129.58-3.281a9.533 9.533 0 0 0-.58-3.281 3.473 3.473 0 0 1 2.321 3.281 3.474 3.474 0 0 1-2.32 3.281Z" fill="#fff"/></svg>