<svg width="25" height="25" fill="none" xmlns="http://www.w3.org/2000/svg"><path d="M24.936 12.022 12.5 24.872.064 12.023l4.974-6.218h14.924l4.974 6.218Z" fill="#FF00D4"/><path d="M24.936 11.607h-7.6L20.329 6l-.732-.39-2.99 5.606-3.761-5.641-.345.23-.345-.23-3.76 5.64-2.99-5.606-.733.39 2.992 5.61h-7.6v.828h7.989L12.105 25l.395-.127.395.127 4.052-12.564h7.99v-.829Zm-9.065 0H9.13l3.37-5.056 3.372 5.056ZM12.5 23.522 8.924 12.436h7.152L12.5 23.522ZM12.085 3.316h.83V2.073h1.243v-.83h-1.243V0h-.83v1.244h-1.243v.829h1.243v1.243ZM20.376 4.56h.83V3.316h1.243v-.829h-1.244V1.244h-.829v1.243h-1.243v.83h1.243V4.56ZM3.795 4.56h.829V3.316h1.243v-.829H4.624V1.244h-.83v1.243H2.552v.83h1.244V4.56Z" fill="#fff"/></svg>